{"title":"Anayurt Oteli (1987) - TVRip","uid":11390894,"size":733744754,"categoryP":"video","categoryS":"movies","magnet":"?xt=urn:btih:7a5bf7c4c39bb204c5179dba0bc596722ee8c86c&amp;dn=Anayurt+Oteli+%281987%29+-+TVRip&amp;tr=udp%3A%2F%2Ftracker.openbittorrent.com%3A80&amp;tr=udp%3A%2F%2Fopen.demonii.com%3A1337&amp;tr=udp%3A%2F%2Ftracker.coppersurfer.tk%3A6969&amp;tr=udp%3A%2F%2Fexodus.desync.com%3A6969","seeders":0,"leechers":1,"uploader":"wesleybl","files":3,"time":1415325550,"description":"Anayurt Oteli (1987)\n\nThe lonely proprietor of a small hotel in a provincial Turkish town develops a passion for a departed guest and the reality of routine everyday-life starts crumbling into pieces.\n\n\nDirector: Ã–mer Kavur\n &lt;a href=&quot;\nhttp://www.imdb.com/title/tt0092558&quot; rel=&quot;nofollow&quot; target=&quot;_NEW&quot;&gt;\nhttp://www.imdb.com/title/tt0092558&lt;/a&gt;\n\n\nVideo\nID                                       : 0\nFormat                                   : MPEG-4 Visual\nFormat profile                           : Advanced Simple@L5\nFormat settings, BVOP                    : 2\nFormat settings, QPel                    : No\nFormat settings, GMC                     : No warppoints\nFormat settings, Matrix                  : Default (H.263)\nMuxing mode                              : Packed bitstream\nCodec ID                                 : XVID\nCodec ID/Hint                            : XviD\nDuration                                 : 1h 40mn\nBit rate                                 : 881 Kbps\nWidth                                    : 512 pixels\nHeight                                   : 384 pixels\nDisplay aspect ratio                     : 4:3\nFrame rate                               : 25.000 fps\nColor space                              : YUV\nChroma subsampling                       : 4:2:0\nBit depth                                : 8 bits\nScan type                                : Progressive\nCompression mode                         : Lossy\nBits/(Pixel*Frame)                       : 0.179\nStream size                              : 635 MiB (91%)\nWriting library                          : XviD 1.1.2 (UTC 2006-11-01)\n\nAudio\nID                                       : 1\nFormat                                   : MPEG Audio\nFormat version                           : Version 1\nFormat profile                           : Layer 3\nMode                                     : Joint stereo\nMode extension                           : MS Stereo\nCodec ID                                 : 55\nCodec ID/Hint                            : MP3\nDuration                                 : 1h 40mn\nBit rate mode                            : Variable\nBit rate                                 : 77.2 Kbps\nNominal bit rate                         : 96.0 Kbps\nChannel(s)                               : 2 channels\nSampling rate                            : 44.1 KHz\nCompression mode                         : Lossy\nStream size                              : 55.7 MiB (8%)\nAlignment                                : Aligned on interleaves\nInterleave, duration                     : 26 ms (0.65 video frame)\nInterleave, preload duration             : 496 ms\nWriting library                          : LAME3.97b\nEncoding settings                        : -m j -V 4 -q 3 -lowpass 15.1 --abr 96","torrent":{"xt":"urn:btih:7a5bf7c4c39bb204c5179dba0bc596722ee8c86c","amp;dn":"Anayurt+Oteli+%281987%29+-+TVRip","amp;tr":["udp%3A%2F%2Ftracker.openbittorrent.com%3A80","udp%3A%2F%2Fopen.demonii.com%3A1337","udp%3A%2F%2Ftracker.coppersurfer.tk%3A6969","udp%3A%2F%2Fexodus.desync.com%3A6969"],"infoHash":"7a5bf7c4c39bb204c5179dba0bc596722ee8c86c","infoHashBuffer":{"type":"Buffer","data":[122,91,247,196,195,155,178,4,197,23,157,186,11,197,150,114,46,232,200,108]},"announce":[],"urlList":[]}}